<?xml version="1.0" encoding="utf-8" standalone="no"?>
<!DOCTYPE svg PUBLIC "-//W3C//DTD SVG 1.1//EN"
  "http://www.w3.org/Graphics/SVG/1.1/DTD/svg11.dtd">
<svg xmlns:xlink="http://www.w3.org/1999/xlink" width="906.6075pt" height="318.89243pt" viewBox="0 0 906.6075 318.89243" xmlns="http://www.w3.org/2000/svg" version="1.1">
 <metadata>
  <rdf:RDF xmlns:dc="http://purl.org/dc/elements/1.1/" xmlns:cc="http://creativecommons.org/ns#" xmlns:rdf="http://www.w3.org/1999/02/22-rdf-syntax-ns#">
   <cc:Work>
    <dc:type rdf:resource="http://purl.org/dc/dcmitype/StillImage"/>
    <dc:date>2024-07-30T06:48:35.211593</dc:date>
    <dc:format>image/svg+xml</dc:format>
    <dc:creator>
     <cc:Agent>
      <dc:title>Matplotlib v3.8.2, https://matplotlib.org/</dc:title>
     </cc:Agent>
    </dc:creator>
   </cc:Work>
  </rdf:RDF>
 </metadata>
 <defs>
  <style type="text/css">*{stroke-linejoin: round; stroke-linecap: butt}</style>
 </defs>
 <g id="figure_1">
  <g id="patch_1">
   <path d="M 0 318.89243 
L 906.6075 318.89243 
L 906.6075 0 
L 0 0 
L 0 318.89243 
z
" style="fill: none"/>
  </g>
  <g id="axes_1">
   <g id="patch_2">
    <path d="M 62.4075 175.259463 
L 899.4075 175.259463 
L 899.4075 8.939463 
L 62.4075 8.939463 
L 62.4075 175.259463 
z
" style="fill: none"/>
   </g>
   <g id="matplotlib.axis_1">
    <g id="xtick_1">
     <g id="text_1">
      <!-- GPT-4 -->
      <g style="fill: #008b8b" transform="translate(76.752194 227.539053) rotate(-50) scale(0.16 -0.16)">
       <defs>
        <path id="ArialMT-47" d="M 2638 1797 
L 2638 2334 
L 4578 2338 
L 4578 638 
Q 4131 281 3656 101 
Q 3181 -78 2681 -78 
Q 2006 -78 1454 211 
Q 903 500 622 1047 
Q 341 1594 341 2269 
Q 341 2938 620 3517 
Q 900 4097 1425 4378 
Q 1950 4659 2634 4659 
Q 3131 4659 3532 4498 
Q 3934 4338 4162 4050 
Q 4391 3763 4509 3300 
L 3963 3150 
Q 3859 3500 3706 3700 
Q 3553 3900 3268 4020 
Q 2984 4141 2638 4141 
Q 2222 4141 1919 4014 
Q 1616 3888 1430 3681 
Q 1244 3475 1141 3228 
Q 966 2803 966 2306 
Q 966 1694 1177 1281 
Q 1388 869 1791 669 
Q 2194 469 2647 469 
Q 3041 469 3416 620 
Q 3791 772 3984 944 
L 3984 1797 
L 2638 1797 
z
" transform="scale(0.015625)"/>
        <path id="ArialMT-50" d="M 494 0 
L 494 4581 
L 2222 4581 
Q 2678 4581 2919 4538 
Q 3256 4481 3484 4323 
Q 3713 4166 3852 3881 
Q 3991 3597 3991 3256 
Q 3991 2672 3619 2267 
Q 3247 1863 2275 1863 
L 1100 1863 
L 1100 0 
L 494 0 
z
M 1100 2403 
L 2284 2403 
Q 2872 2403 3119 2622 
Q 3366 2841 3366 3238 
Q 3366 3525 3220 3729 
Q 3075 3934 2838 4000 
Q 2684 4041 2272 4041 
L 1100 4041 
L 1100 2403 
z
" transform="scale(0.015625)"/>
        <path id="ArialMT-54" d="M 1659 0 
L 1659 4041 
L 150 4041 
L 150 4581 
L 3781 4581 
L 3781 4041 
L 2266 4041 
L 2266 0 
L 1659 0 
z
" transform="scale(0.015625)"/>
        <path id="ArialMT-2d" d="M 203 1375 
L 203 1941 
L 1931 1941 
L 1931 1375 
L 203 1375 
z
" transform="scale(0.015625)"/>
        <path id="ArialMT-34" d="M 2069 0 
L 2069 1097 
L 81 1097 
L 81 1613 
L 2172 4581 
L 2631 4581 
L 2631 1613 
L 3250 1613 
L 3250 1097 
L 2631 1097 
L 2631 0 
L 2069 0 
z
M 2069 1613 
L 2069 3678 
L 634 1613 
L 2069 1613 
z
" transform="scale(0.015625)"/>
       </defs>
       <use xlink:href="#ArialMT-47"/>
       <use xlink:href="#ArialMT-50" x="77.783203"/>
       <use xlink:href="#ArialMT-54" x="144.482422"/>
       <use xlink:href="#ArialMT-2d" x="200.066406"/>
       <use xlink:href="#ArialMT-34" x="233.367188"/>
      </g>
     </g>
    </g>
    <g id="xtick_2">
     <g id="text_2">
      <!-- Llama3 8B Instruct -->
      <g style="fill: #008b8b" transform="translate(113.730039 294.303656) rotate(-50) scale(0.16 -0.16)">
       <defs>
        <path id="ArialMT-4c" d="M 469 0 
L 469 4581 
L 1075 4581 
L 1075 541 
L 3331 541 
L 3331 0 
L 469 0 
z
" transform="scale(0.015625)"/>
        <path id="ArialMT-6c" d="M 409 0 
L 409 4581 
L 972 4581 
L 972 0 
L 409 0 
z
" transform="scale(0.015625)"/>
        <path id="ArialMT-61" d="M 2588 409 
Q 2275 144 1986 34 
Q 1697 -75 1366 -75 
Q 819 -75 525 192 
Q 231 459 231 875 
Q 231 1119 342 1320 
Q 453 1522 633 1644 
Q 813 1766 1038 1828 
Q 1203 1872 1538 1913 
Q 2219 1994 2541 2106 
Q 2544 2222 2544 2253 
Q 2544 2597 2384 2738 
Q 2169 2928 1744 2928 
Q 1347 2928 1158 2789 
Q 969 2650 878 2297 
L 328 2372 
Q 403 2725 575 2942 
Q 747 3159 1072 3276 
Q 1397 3394 1825 3394 
Q 2250 3394 2515 3294 
Q 2781 3194 2906 3042 
Q 3031 2891 3081 2659 
Q 3109 2516 3109 2141 
L 3109 1391 
Q 3109 606 3145 398 
Q 3181 191 3288 0 
L 2700 0 
Q 2613 175 2588 409 
z
M 2541 1666 
Q 2234 1541 1622 1453 
Q 1275 1403 1131 1340 
Q 988 1278 909 1158 
Q 831 1038 831 891 
Q 831 666 1001 516 
Q 1172 366 1500 366 
Q 1825 366 2078 508 
Q 2331 650 2450 897 
Q 2541 1088 2541 1459 
L 2541 1666 
z
" transform="scale(0.015625)"/>
        <path id="ArialMT-6d" d="M 422 0 
L 422 3319 
L 925 3319 
L 925 2853 
Q 1081 3097 1340 3245 
Q 1600 3394 1931 3394 
Q 2300 3394 2536 3241 
Q 2772 3088 2869 2813 
Q 3263 3394 3894 3394 
Q 4388 3394 4653 3120 
Q 4919 2847 4919 2278 
L 4919 0 
L 4359 0 
L 4359 2091 
Q 4359 2428 4304 2576 
Q 4250 2725 4106 2815 
Q 3963 2906 3769 2906 
Q 3419 2906 3187 2673 
Q 2956 2441 2956 1928 
L 2956 0 
L 2394 0 
L 2394 2156 
Q 2394 2531 2256 2718 
Q 2119 2906 1806 2906 
Q 1569 2906 1367 2781 
Q 1166 2656 1075 2415 
Q 984 2175 984 1722 
L 984 0 
L 422 0 
z
" transform="scale(0.015625)"/>
        <path id="ArialMT-33" d="M 269 1209 
L 831 1284 
Q 928 806 1161 595 
Q 1394 384 1728 384 
Q 2125 384 2398 659 
Q 2672 934 2672 1341 
Q 2672 1728 2419 1979 
Q 2166 2231 1775 2231 
Q 1616 2231 1378 2169 
L 1441 2663 
Q 1497 2656 1531 2656 
Q 1891 2656 2178 2843 
Q 2466 3031 2466 3422 
Q 2466 3731 2256 3934 
Q 2047 4138 1716 4138 
Q 1388 4138 1169 3931 
Q 950 3725 888 3313 
L 325 3413 
Q 428 3978 793 4289 
Q 1159 4600 1703 4600 
Q 2078 4600 2393 4439 
Q 2709 4278 2876 4000 
Q 3044 3722 3044 3409 
Q 3044 3113 2884 2869 
Q 2725 2625 2413 2481 
Q 2819 2388 3044 2092 
Q 3269 1797 3269 1353 
Q 3269 753 2831 336 
Q 2394 -81 1725 -81 
Q 1122 -81 723 278 
Q 325 638 269 1209 
z
" transform="scale(0.015625)"/>
        <path id="ArialMT-20" transform="scale(0.015625)"/>
        <path id="ArialMT-38" d="M 1131 2484 
Q 781 2613 612 2850 
Q 444 3088 444 3419 
Q 444 3919 803 4259 
Q 1163 4600 1759 4600 
Q 2359 4600 2725 4251 
Q 3091 3903 3091 3403 
Q 3091 3084 2923 2848 
Q 2756 2613 2416 2484 
Q 2838 2347 3058 2040 
Q 3278 1734 3278 1309 
Q 3278 722 2862 322 
Q 2447 -78 1769 -78 
Q 1091 -78 675 323 
Q 259 725 259 1325 
Q 259 1772 486 2073 
Q 713 2375 1131 2484 
z
M 1019 3438 
Q 1019 3113 1228 2906 
Q 1438 2700 1772 2700 
Q 2097 2700 2305 2904 
Q 2513 3109 2513 3406 
Q 2513 3716 2298 3927 
Q 2084 4138 1766 4138 
Q 1444 4138 1231 3931 
Q 1019 3725 1019 3438 
z
M 838 1322 
Q 838 1081 952 856 
Q 1066 631 1291 507 
Q 1516 384 1775 384 
Q 2178 384 2440 643 
Q 2703 903 2703 1303 
Q 2703 1709 2433 1975 
Q 2163 2241 1756 2241 
Q 1359 2241 1098 1978 
Q 838 1716 838 1322 
z
" transform="scale(0.015625)"/>
        <path id="ArialMT-42" d="M 469 0 
L 469 4581 
L 2188 4581 
Q 2713 4581 3030 4442 
Q 3347 4303 3526 4014 
Q 3706 3725 3706 3409 
Q 3706 3116 3547 2856 
Q 3388 2597 3066 2438 
Q 3481 2316 3704 2022 
Q 3928 1728 3928 1328 
Q 3928 1006 3792 729 
Q 3656 453 3456 303 
Q 3256 153 2954 76 
Q 2653 0 2216 0 
L 469 0 
z
M 1075 2656 
L 2066 2656 
Q 2469 2656 2644 2709 
Q 2875 2778 2992 2937 
Q 3109 3097 3109 3338 
Q 3109 3566 3000 3739 
Q 2891 3913 2687 3977 
Q 2484 4041 1991 4041 
L 1075 4041 
L 1075 2656 
z
M 1075 541 
L 2216 541 
Q 2509 541 2628 563 
Q 2838 600 2978 687 
Q 3119 775 3209 942 
Q 3300 1109 3300 1328 
Q 3300 1584 3169 1773 
Q 3038 1963 2805 2039 
Q 2572 2116 2134 2116 
L 1075 2116 
L 1075 541 
z
" transform="scale(0.015625)"/>
        <path id="ArialMT-49" d="M 597 0 
L 597 4581 
L 1203 4581 
L 1203 0 
L 597 0 
z
" transform="scale(0.015625)"/>
        <path id="ArialMT-6e" d="M 422 0 
L 422 3319 
L 928 3319 
L 928 2847 
Q 1294 3394 1984 3394 
Q 2284 3394 2536 3286 
Q 2788 3178 2913 3003 
Q 3038 2828 3088 2588 
Q 3119 2431 3119 2041 
L 3119 0 
L 2556 0 
L 2556 2019 
Q 2556 2363 2490 2533 
Q 2425 2703 2258 2804 
Q 2091 2906 1866 2906 
Q 1506 2906 1245 2678 
Q 984 2450 984 1813 
L 984 0 
L 422 0 
z
" transform="scale(0.015625)"/>
        <path id="ArialMT-73" d="M 197 991 
L 753 1078 
Q 800 744 1014 566 
Q 1228 388 1613 388 
Q 2000 388 2187 545 
Q 2375 703 2375 916 
Q 2375 1106 2209 1216 
Q 2094 1291 1634 1406 
Q 1016 1563 777 1677 
Q 538 1791 414 1992 
Q 291 2194 291 2438 
Q 291 2659 392 2848 
Q 494 3038 669 3163 
Q 800 3259 1026 3326 
Q 1253 3394 1513 3394 
Q 1903 3394 2198 3281 
Q 2494 3169 2634 2976 
Q 2775 2784 2828 2463 
L 2278 2388 
Q 2241 2644 2061 2787 
Q 1881 2931 1553 2931 
Q 1166 2931 1000 2803 
Q 834 2675 834 2503 
Q 834 2394 903 2306 
Q 972 2216 1119 2156 
Q 1203 2125 1616 2013 
Q 2213 1853 2448 1751 
Q 2684 1650 2818 1456 
Q 2953 1263 2953 975 
Q 2953 694 2789 445 
Q 2625 197 2315 61 
Q 2006 -75 1616 -75 
Q 969 -75 630 194 
Q 291 463 197 991 
z
" transform="scale(0.015625)"/>
        <path id="ArialMT-74" d="M 1650 503 
L 1731 6 
Q 1494 -44 1306 -44 
Q 1000 -44 831 53 
Q 663 150 594 308 
Q 525 466 525 972 
L 525 2881 
L 113 2881 
L 113 3319 
L 525 3319 
L 525 4141 
L 1084 4478 
L 1084 3319 
L 1650 3319 
L 1650 2881 
L 1084 2881 
L 1084 941 
Q 1084 700 1114 631 
Q 1144 563 1211 522 
Q 1278 481 1403 481 
Q 1497 481 1650 503 
z
" transform="scale(0.015625)"/>
        <path id="ArialMT-72" d="M 416 0 
L 416 3319 
L 922 3319 
L 922 2816 
Q 1116 3169 1280 3281 
Q 1444 3394 1641 3394 
Q 1925 3394 2219 3213 
L 2025 2691 
Q 1819 2813 1613 2813 
Q 1428 2813 1281 2702 
Q 1134 2591 1072 2394 
Q 978 2094 978 1738 
L 978 0 
L 416 0 
z
" transform="scale(0.015625)"/>
        <path id="ArialMT-75" d="M 2597 0 
L 2597 488 
Q 2209 -75 1544 -75 
Q 1250 -75 995 37 
Q 741 150 617 320 
Q 494 491 444 738 
Q 409 903 409 1263 
L 409 3319 
L 972 3319 
L 972 1478 
Q 972 1038 1006 884 
Q 1059 663 1231 536 
Q 1403 409 1656 409 
Q 1909 409 2131 539 
Q 2353 669 2445 892 
Q 2538 1116 2538 1541 
L 2538 3319 
L 3100 3319 
L 3100 0 
L 2597 0 
z
" transform="scale(0.015625)"/>
        <path id="ArialMT-63" d="M 2588 1216 
L 3141 1144 
Q 3050 572 2676 248 
Q 2303 -75 1759 -75 
Q 1078 -75 664 370 
Q 250 816 250 1647 
Q 250 2184 428 2587 
Q 606 2991 970 3192 
Q 1334 3394 1763 3394 
Q 2303 3394 2647 3120 
Q 2991 2847 3088 2344 
L 2541 2259 
Q 2463 2594 2264 2762 
Q 2066 2931 1784 2931 
Q 1359 2931 1093 2626 
Q 828 2322 828 1663 
Q 828 994 1084 691 
Q 1341 388 1753 388 
Q 2084 388 2306 591 
Q 2528 794 2588 1216 
z
" transform="scale(0.015625)"/>
       </defs>
       <use xlink:href="#ArialMT-4c"/>
       <use xlink:href="#ArialMT-6c" x="55.615234"/>
       <use xlink:href="#ArialMT-61" x="77.832031"/>
       <use xlink:href="#ArialMT-6d" x="133.447266"/>
       <use xlink:href="#ArialMT-61" x="216.748047"/>
       <use xlink:href="#ArialMT-33" x="272.363281"/>
       <use xlink:href="#ArialMT-20" x="327.978516"/>
       <use xlink:href="#ArialMT-38" x="355.761719"/>
       <use xlink:href="#ArialMT-42" x="411.376953"/>
       <use xlink:href="#ArialMT-20" x="478.076172"/>
       <use xlink:href="#ArialMT-49" x="505.859375"/>
       <use xlink:href="#ArialMT-6e" x="533.642578"/>
       <use xlink:href="#ArialMT-73" x="589.257812"/>
       <use xlink:href="#ArialMT-74" x="639.257812"/>
       <use xlink:href="#ArialMT-72" x="667.041016"/>
       <use xlink:href="#ArialMT-75" x="700.341797"/>
       <use xlink:href="#ArialMT-63" x="755.957031"/>
       <use xlink:href="#ArialMT-74" x="805.957031"/>
      </g>
     </g>
    </g>
    <g id="xtick_3">
     <g id="text_3">
      <!-- SEA-LION 7B -->
      <g style="fill: #008b8b" transform="translate(229.026735 267.73149) rotate(-50) scale(0.16 -0.16)">
       <defs>
        <path id="ArialMT-53" d="M 288 1472 
L 859 1522 
Q 900 1178 1048 958 
Q 1197 738 1509 602 
Q 1822 466 2213 466 
Q 2559 466 2825 569 
Q 3091 672 3220 851 
Q 3350 1031 3350 1244 
Q 3350 1459 3225 1620 
Q 3100 1781 2813 1891 
Q 2628 1963 1997 2114 
Q 1366 2266 1113 2400 
Q 784 2572 623 2826 
Q 463 3081 463 3397 
Q 463 3744 659 4045 
Q 856 4347 1234 4503 
Q 1613 4659 2075 4659 
Q 2584 4659 2973 4495 
Q 3363 4331 3572 4012 
Q 3781 3694 3797 3291 
L 3216 3247 
Q 3169 3681 2898 3903 
Q 2628 4125 2100 4125 
Q 1550 4125 1298 3923 
Q 1047 3722 1047 3438 
Q 1047 3191 1225 3031 
Q 1400 2872 2139 2705 
Q 2878 2538 3153 2413 
Q 3553 2228 3743 1945 
Q 3934 1663 3934 1294 
Q 3934 928 3725 604 
Q 3516 281 3123 101 
Q 2731 -78 2241 -78 
Q 1619 -78 1198 103 
Q 778 284 539 648 
Q 300 1013 288 1472 
z
" transform="scale(0.015625)"/>
        <path id="ArialMT-45" d="M 506 0 
L 506 4581 
L 3819 4581 
L 3819 4041 
L 1113 4041 
L 1113 2638 
L 3647 2638 
L 3647 2100 
L 1113 2100 
L 1113 541 
L 3925 541 
L 3925 0 
L 506 0 
z
" transform="scale(0.015625)"/>
        <path id="ArialMT-41" d="M -9 0 
L 1750 4581 
L 2403 4581 
L 4278 0 
L 3588 0 
L 3053 1388 
L 1138 1388 
L 634 0 
L -9 0 
z
M 1313 1881 
L 2866 1881 
L 2388 3150 
Q 2169 3728 2063 4100 
Q 1975 3659 1816 3225 
L 1313 1881 
z
" transform="scale(0.015625)"/>
        <path id="ArialMT-4f" d="M 309 2231 
Q 309 3372 921 4017 
Q 1534 4663 2503 4663 
Q 3138 4663 3647 4359 
Q 4156 4056 4423 3514 
Q 4691 2972 4691 2284 
Q 4691 1588 4409 1038 
Q 4128 488 3612 205 
Q 3097 -78 2500 -78 
Q 1853 -78 1343 234 
Q 834 547 571 1087 
Q 309 1628 309 2231 
z
M 934 2222 
Q 934 1394 1379 917 
Q 1825 441 2497 441 
Q 3181 441 3623 922 
Q 4066 1403 4066 2288 
Q 4066 2847 3877 3264 
Q 3688 3681 3323 3911 
Q 2959 4141 2506 4141 
Q 1863 4141 1398 3698 
Q 934 3256 934 2222 
z
" transform="scale(0.015625)"/>
        <path id="ArialMT-4e" d="M 488 0 
L 488 4581 
L 1109 4581 
L 3516 984 
L 3516 4581 
L 4097 4581 
L 4097 0 
L 3475 0 
L 1069 3600 
L 1069 0 
L 488 0 
z
" transform="scale(0.015625)"/>
        <path id="ArialMT-37" d="M 303 3981 
L 303 4522 
L 3269 4522 
L 3269 4084 
Q 2831 3619 2401 2847 
Q 1972 2075 1738 1259 
Q 1569 684 1522 0 
L 944 0 
Q 953 541 1156 1306 
Q 1359 2072 1739 2783 
Q 2119 3494 2547 3981 
L 303 3981 
z
" transform="scale(0.015625)"/>
       </defs>
       <use xlink:href="#ArialMT-53"/>
       <use xlink:href="#ArialMT-45" x="66.699219"/>
       <use xlink:href="#ArialMT-41" x="133.398438"/>
       <use xlink:href="#ArialMT-2d" x="200.097656"/>
       <use xlink:href="#ArialMT-4c" x="233.398438"/>
       <use xlink:href="#ArialMT-49" x="289.013672"/>
       <use xlink:href="#ArialMT-4f" x="316.796875"/>
       <use xlink:href="#ArialMT-4e" x="394.580078"/>
       <use xlink:href="#ArialMT-20" x="466.796875"/>
       <use xlink:href="#ArialMT-37" x="494.580078"/>
       <use xlink:href="#ArialMT-42" x="550.195312"/>
      </g>
     </g>
    </g>
    <g id="xtick_4">
     <g id="text_4">
      <!-- SeaLLM -->
      <g style="fill: #008b8b" transform="translate(334.203995 237.769576) rotate(-50) scale(0.16 -0.16)">
       <defs>
        <path id="ArialMT-65" d="M 2694 1069 
L 3275 997 
Q 3138 488 2766 206 
Q 2394 -75 1816 -75 
Q 1088 -75 661 373 
Q 234 822 234 1631 
Q 234 2469 665 2931 
Q 1097 3394 1784 3394 
Q 2450 3394 2872 2941 
Q 3294 2488 3294 1666 
Q 3294 1616 3291 1516 
L 816 1516 
Q 847 969 1125 678 
Q 1403 388 1819 388 
Q 2128 388 2347 550 
Q 2566 713 2694 1069 
z
M 847 1978 
L 2700 1978 
Q 2663 2397 2488 2606 
Q 2219 2931 1791 2931 
Q 1403 2931 1139 2672 
Q 875 2413 847 1978 
z
" transform="scale(0.015625)"/>
        <path id="ArialMT-4d" d="M 475 0 
L 475 4581 
L 1388 4581 
L 2472 1338 
Q 2622 884 2691 659 
Q 2769 909 2934 1394 
L 4031 4581 
L 4847 4581 
L 4847 0 
L 4263 0 
L 4263 3834 
L 2931 0 
L 2384 0 
L 1059 3900 
L 1059 0 
L 475 0 
z
" transform="scale(0.015625)"/>
       </defs>
       <use xlink:href="#ArialMT-53"/>
       <use xlink:href="#ArialMT-65" x="66.699219"/>
       <use xlink:href="#ArialMT-61" x="122.314453"/>
       <use xlink:href="#ArialMT-4c" x="177.929688"/>
       <use xlink:href="#ArialMT-4c" x="233.544922"/>
       <use xlink:href="#ArialMT-4d" x="289.160156"/>
      </g>
      <!-- v2.5 7B -->
      <g style="fill: #008b8b" transform="translate(350.597037 244.560624) rotate(-50) scale(0.16 -0.16)">
       <defs>
        <path id="ArialMT-76" d="M 1344 0 
L 81 3319 
L 675 3319 
L 1388 1331 
Q 1503 1009 1600 663 
Q 1675 925 1809 1294 
L 2547 3319 
L 3125 3319 
L 1869 0 
L 1344 0 
z
" transform="scale(0.015625)"/>
        <path id="ArialMT-32" d="M 3222 541 
L 3222 0 
L 194 0 
Q 188 203 259 391 
Q 375 700 629 1000 
Q 884 1300 1366 1694 
Q 2113 2306 2375 2664 
Q 2638 3022 2638 3341 
Q 2638 3675 2398 3904 
Q 2159 4134 1775 4134 
Q 1369 4134 1125 3890 
Q 881 3647 878 3216 
L 300 3275 
Q 359 3922 746 4261 
Q 1134 4600 1788 4600 
Q 2447 4600 2831 4234 
Q 3216 3869 3216 3328 
Q 3216 3053 3103 2787 
Q 2991 2522 2730 2228 
Q 2469 1934 1863 1422 
Q 1356 997 1212 845 
Q 1069 694 975 541 
L 3222 541 
z
" transform="scale(0.015625)"/>
        <path id="ArialMT-2e" d="M 581 0 
L 581 641 
L 1222 641 
L 1222 0 
L 581 0 
z
" transform="scale(0.015625)"/>
        <path id="ArialMT-35" d="M 266 1200 
L 856 1250 
Q 922 819 1161 601 
Q 1400 384 1738 384 
Q 2144 384 2425 690 
Q 2706 997 2706 1503 
Q 2706 1984 2436 2262 
Q 2166 2541 1728 2541 
Q 1456 2541 1237 2417 
Q 1019 2294 894 2097 
L 366 2166 
L 809 4519 
L 3088 4519 
L 3088 3981 
L 1259 3981 
L 1013 2750 
Q 1425 3038 1878 3038 
Q 2478 3038 2890 2622 
Q 3303 2206 3303 1553 
Q 3303 931 2941 478 
Q 2500 -78 1738 -78 
Q 1113 -78 717 272 
Q 322 622 266 1200 
z
" transform="scale(0.015625)"/>
       </defs>
       <use xlink:href="#ArialMT-76"/>
       <use xlink:href="#ArialMT-32" x="50"/>
       <use xlink:href="#ArialMT-2e" x="105.615234"/>
       <use xlink:href="#ArialMT-35" x="133.398438"/>
       <use xlink:href="#ArialMT-20" x="189.013672"/>
       <use xlink:href="#ArialMT-37" x="216.796875"/>
       <use xlink:href="#ArialMT-42" x="272.412109"/>
      </g>
     </g>
    </g>
    <g id="xtick_5">
     <g id="text_5">
      <!-- WangchanX- -->
      <g style="fill: #008b8b" transform="translate(406.299929 262.510897) rotate(-50) scale(0.16 -0.16)">
       <defs>
        <path id="ArialMT-57" d="M 1294 0 
L 78 4581 
L 700 4581 
L 1397 1578 
Q 1509 1106 1591 641 
Q 1766 1375 1797 1488 
L 2669 4581 
L 3400 4581 
L 4056 2263 
Q 4303 1400 4413 641 
Q 4500 1075 4641 1638 
L 5359 4581 
L 5969 4581 
L 4713 0 
L 4128 0 
L 3163 3491 
Q 3041 3928 3019 4028 
Q 2947 3713 2884 3491 
L 1913 0 
L 1294 0 
z
" transform="scale(0.015625)"/>
        <path id="ArialMT-67" d="M 319 -275 
L 866 -356 
Q 900 -609 1056 -725 
Q 1266 -881 1628 -881 
Q 2019 -881 2231 -725 
Q 2444 -569 2519 -288 
Q 2563 -116 2559 434 
Q 2191 0 1641 0 
Q 956 0 581 494 
Q 206 988 206 1678 
Q 206 2153 378 2554 
Q 550 2956 876 3175 
Q 1203 3394 1644 3394 
Q 2231 3394 2613 2919 
L 2613 3319 
L 3131 3319 
L 3131 450 
Q 3131 -325 2973 -648 
Q 2816 -972 2473 -1159 
Q 2131 -1347 1631 -1347 
Q 1038 -1347 672 -1080 
Q 306 -813 319 -275 
z
M 784 1719 
Q 784 1066 1043 766 
Q 1303 466 1694 466 
Q 2081 466 2343 764 
Q 2606 1063 2606 1700 
Q 2606 2309 2336 2618 
Q 2066 2928 1684 2928 
Q 1309 2928 1046 2623 
Q 784 2319 784 1719 
z
" transform="scale(0.015625)"/>
        <path id="ArialMT-68" d="M 422 0 
L 422 4581 
L 984 4581 
L 984 2938 
Q 1378 3394 1978 3394 
Q 2347 3394 2619 3248 
Q 2891 3103 3008 2847 
Q 3125 2591 3125 2103 
L 3125 0 
L 2563 0 
L 2563 2103 
Q 2563 2525 2380 2717 
Q 2197 2909 1863 2909 
Q 1613 2909 1392 2779 
Q 1172 2650 1078 2428 
Q 984 2206 984 1816 
L 984 0 
L 422 0 
z
" transform="scale(0.015625)"/>
        <path id="ArialMT-58" d="M 28 0 
L 1800 2388 
L 238 4581 
L 959 4581 
L 1791 3406 
Q 2050 3041 2159 2844 
Q 2313 3094 2522 3366 
L 3444 4581 
L 4103 4581 
L 2494 2422 
L 4228 0 
L 3478 0 
L 2325 1634 
Q 2228 1775 2125 1941 
Q 1972 1691 1906 1597 
L 756 0 
L 28 0 
z
" transform="scale(0.015625)"/>
       </defs>
       <use xlink:href="#ArialMT-57"/>
       <use xlink:href="#ArialMT-61" x="90.634766"/>
       <use xlink:href="#ArialMT-6e" x="146.25"/>
       <use xlink:href="#ArialMT-67" x="201.865234"/>
       <use xlink:href="#ArialMT-63" x="257.480469"/>
       <use xlink:href="#ArialMT-68" x="307.480469"/>
       <use xlink:href="#ArialMT-61" x="363.095703"/>
       <use xlink:href="#ArialMT-6e" x="418.710938"/>
       <use xlink:href="#ArialMT-58" x="474.326172"/>
       <use xlink:href="#ArialMT-2d" x="541.025391"/>
      </g>
      <!-- Llama3 8B Demo -->
      <g style="fill: #008b8b" transform="translate(399.016502 297.810159) rotate(-50) scale(0.16 -0.16)">
       <defs>
        <path id="ArialMT-44" d="M 494 0 
L 494 4581 
L 2072 4581 
Q 2606 4581 2888 4516 
Q 3281 4425 3559 4188 
Q 3922 3881 4101 3404 
Q 4281 2928 4281 2316 
Q 4281 1794 4159 1391 
Q 4038 988 3847 723 
Q 3656 459 3429 307 
Q 3203 156 2883 78 
Q 2563 0 2147 0 
L 494 0 
z
M 1100 541 
L 2078 541 
Q 2531 541 2789 625 
Q 3047 709 3200 863 
Q 3416 1078 3536 1442 
Q 3656 1806 3656 2325 
Q 3656 3044 3420 3430 
Q 3184 3816 2847 3947 
Q 2603 4041 2063 4041 
L 1100 4041 
L 1100 541 
z
" transform="scale(0.015625)"/>
        <path id="ArialMT-6f" d="M 213 1659 
Q 213 2581 725 3025 
Q 1153 3394 1769 3394 
Q 2453 3394 2887 2945 
Q 3322 2497 3322 1706 
Q 3322 1066 3130 698 
Q 2938 331 2570 128 
Q 2203 -75 1769 -75 
Q 1072 -75 642 372 
Q 213 819 213 1659 
z
M 791 1659 
Q 791 1022 1069 705 
Q 1347 388 1769 388 
Q 2188 388 2466 706 
Q 2744 1025 2744 1678 
Q 2744 2294 2464 2611 
Q 2184 2928 1769 2928 
Q 1347 2928 1069 2612 
Q 791 2297 791 1659 
z
" transform="scale(0.015625)"/>
       </defs>
       <use xlink:href="#ArialMT-4c"/>
       <use xlink:href="#ArialMT-6c" x="55.615234"/>
       <use xlink:href="#ArialMT-61" x="77.832031"/>
       <use xlink:href="#ArialMT-6d" x="133.447266"/>
       <use xlink:href="#ArialMT-61" x="216.748047"/>
       <use xlink:href="#ArialMT-33" x="272.363281"/>
       <use xlink:href="#ArialMT-20" x="327.978516"/>
       <use xlink:href="#ArialMT-38" x="355.761719"/>
       <use xlink:href="#ArialMT-42" x="411.376953"/>
       <use xlink:href="#ArialMT-20" x="478.076172"/>
       <use xlink:href="#ArialMT-44" x="505.859375"/>
       <use xlink:href="#ArialMT-65" x="578.076172"/>
       <use xlink:href="#ArialMT-6d" x="633.691406"/>
       <use xlink:href="#ArialMT-6f" x="716.992188"/>
      </g>
     </g>
    </g>
    <g id="xtick_6">
     <g id="text_6">
      <!-- WangchanX- -->
      <g style="fill: #008b8b" transform="translate(498.977041 262.510897) rotate(-50) scale(0.16 -0.16)">
       <use xlink:href="#ArialMT-57"/>
       <use xlink:href="#ArialMT-61" x="90.634766"/>
       <use xlink:href="#ArialMT-6e" x="146.25"/>
       <use xlink:href="#ArialMT-67" x="201.865234"/>
       <use xlink:href="#ArialMT-63" x="257.480469"/>
       <use xlink:href="#ArialMT-68" x="307.480469"/>
       <use xlink:href="#ArialMT-61" x="363.095703"/>
       <use xlink:href="#ArialMT-6e" x="418.710938"/>
       <use xlink:href="#ArialMT-58" x="474.326172"/>
       <use xlink:href="#ArialMT-2d" x="541.025391"/>
      </g>
      <!-- Llama3 8B Full (nc) -->
      <g style="fill: #008b8b" transform="translate(482.166776 309.527842) rotate(-50) scale(0.16 -0.16)">
       <defs>
        <path id="ArialMT-46" d="M 525 0 
L 525 4581 
L 3616 4581 
L 3616 4041 
L 1131 4041 
L 1131 2622 
L 3281 2622 
L 3281 2081 
L 1131 2081 
L 1131 0 
L 525 0 
z
" transform="scale(0.015625)"/>
        <path id="ArialMT-28" d="M 1497 -1347 
Q 1031 -759 709 28 
Q 388 816 388 1659 
Q 388 2403 628 3084 
Q 909 3875 1497 4659 
L 1900 4659 
Q 1522 4009 1400 3731 
Q 1209 3300 1100 2831 
Q 966 2247 966 1656 
Q 966 153 1900 -1347 
L 1497 -1347 
z
" transform="scale(0.015625)"/>
        <path id="ArialMT-29" d="M 791 -1347 
L 388 -1347 
Q 1322 153 1322 1656 
Q 1322 2244 1188 2822 
Q 1081 3291 891 3722 
Q 769 4003 388 4659 
L 791 4659 
Q 1378 3875 1659 3084 
Q 1900 2403 1900 1659 
Q 1900 816 1576 28 
Q 1253 -759 791 -1347 
z
" transform="scale(0.015625)"/>
       </defs>
       <use xlink:href="#ArialMT-4c"/>
       <use xlink:href="#ArialMT-6c" x="55.615234"/>
       <use xlink:href="#ArialMT-61" x="77.832031"/>
       <use xlink:href="#ArialMT-6d" x="133.447266"/>
       <use xlink:href="#ArialMT-61" x="216.748047"/>
       <use xlink:href="#ArialMT-33" x="272.363281"/>
       <use xlink:href="#ArialMT-20" x="327.978516"/>
       <use xlink:href="#ArialMT-38" x="355.761719"/>
       <use xlink:href="#ArialMT-42" x="411.376953"/>
       <use xlink:href="#ArialMT-20" x="478.076172"/>
       <use xlink:href="#ArialMT-46" x="505.859375"/>
       <use xlink:href="#ArialMT-75" x="566.943359"/>
       <use xlink:href="#ArialMT-6c" x="622.558594"/>
       <use xlink:href="#ArialMT-6c" x="644.775391"/>
       <use xlink:href="#ArialMT-20" x="666.992188"/>
       <use xlink:href="#ArialMT-28" x="694.775391"/>
       <use xlink:href="#ArialMT-6e" x="728.076172"/>
       <use xlink:href="#ArialMT-63" x="783.691406"/>
       <use xlink:href="#ArialMT-29" x="833.691406"/>
      </g>
     </g>
    </g>
    <g id="xtick_7">
     <g id="text_7">
      <!-- WangchanX- -->
      <g style="fill: #008b8b" transform="translate(592.299929 262.510897) rotate(-50) scale(0.16 -0.16)">
       <use xlink:href="#ArialMT-57"/>
       <use xlink:href="#ArialMT-61" x="90.634766"/>
       <use xlink:href="#ArialMT-6e" x="146.25"/>
       <use xlink:href="#ArialMT-67" x="201.865234"/>
       <use xlink:href="#ArialMT-63" x="257.480469"/>
       <use xlink:href="#ArialMT-68" x="307.480469"/>
       <use xlink:href="#ArialMT-61" x="363.095703"/>
       <use xlink:href="#ArialMT-6e" x="418.710938"/>
       <use xlink:href="#ArialMT-58" x="474.326172"/>
       <use xlink:href="#ArialMT-2d" x="541.025391"/>
      </g>
      <!-- Llama3 8B Full -->
      <g style="fill: #008b8b" transform="translate(595.878006 284.865923) rotate(-50) scale(0.16 -0.16)">
       <use xlink:href="#ArialMT-4c"/>
       <use xlink:href="#ArialMT-6c" x="55.615234"/>
       <use xlink:href="#ArialMT-61" x="77.832031"/>
       <use xlink:href="#ArialMT-6d" x="133.447266"/>
       <use xlink:href="#ArialMT-61" x="216.748047"/>
       <use xlink:href="#ArialMT-33" x="272.363281"/>
       <use xlink:href="#ArialMT-20" x="327.978516"/>
       <use xlink:href="#ArialMT-38" x="355.761719"/>
       <use xlink:href="#ArialMT-42" x="411.376953"/>
       <use xlink:href="#ArialMT-20" x="478.076172"/>
       <use xlink:href="#ArialMT-46" x="505.859375"/>
       <use xlink:href="#ArialMT-75" x="566.943359"/>
       <use xlink:href="#ArialMT-6c" x="622.558594"/>
       <use xlink:href="#ArialMT-6c" x="644.775391"/>
      </g>
     </g>
    </g>
    <g id="xtick_8">
     <g id="text_8">
      <!-- Typhoon V1.5x- -->
      <g style="fill: #008b8b" transform="translate(672.330082 277.998291) rotate(-50) scale(0.16 -0.16)">
       <defs>
        <path id="ArialMT-79" d="M 397 -1278 
L 334 -750 
Q 519 -800 656 -800 
Q 844 -800 956 -737 
Q 1069 -675 1141 -563 
Q 1194 -478 1313 -144 
Q 1328 -97 1363 -6 
L 103 3319 
L 709 3319 
L 1400 1397 
Q 1534 1031 1641 628 
Q 1738 1016 1872 1384 
L 2581 3319 
L 3144 3319 
L 1881 -56 
Q 1678 -603 1566 -809 
Q 1416 -1088 1222 -1217 
Q 1028 -1347 759 -1347 
Q 597 -1347 397 -1278 
z
" transform="scale(0.015625)"/>
        <path id="ArialMT-70" d="M 422 -1272 
L 422 3319 
L 934 3319 
L 934 2888 
Q 1116 3141 1344 3267 
Q 1572 3394 1897 3394 
Q 2322 3394 2647 3175 
Q 2972 2956 3137 2557 
Q 3303 2159 3303 1684 
Q 3303 1175 3120 767 
Q 2938 359 2589 142 
Q 2241 -75 1856 -75 
Q 1575 -75 1351 44 
Q 1128 163 984 344 
L 984 -1272 
L 422 -1272 
z
M 931 1641 
Q 931 1000 1190 694 
Q 1450 388 1819 388 
Q 2194 388 2461 705 
Q 2728 1022 2728 1688 
Q 2728 2322 2467 2637 
Q 2206 2953 1844 2953 
Q 1484 2953 1207 2617 
Q 931 2281 931 1641 
z
" transform="scale(0.015625)"/>
        <path id="ArialMT-56" d="M 1803 0 
L 28 4581 
L 684 4581 
L 1875 1253 
Q 2019 853 2116 503 
Q 2222 878 2363 1253 
L 3600 4581 
L 4219 4581 
L 2425 0 
L 1803 0 
z
" transform="scale(0.015625)"/>
        <path id="ArialMT-31" d="M 2384 0 
L 1822 0 
L 1822 3584 
Q 1619 3391 1289 3197 
Q 959 3003 697 2906 
L 697 3450 
Q 1169 3672 1522 3987 
Q 1875 4303 2022 4600 
L 2384 4600 
L 2384 0 
z
" transform="scale(0.015625)"/>
        <path id="ArialMT-78" d="M 47 0 
L 1259 1725 
L 138 3319 
L 841 3319 
L 1350 2541 
Q 1494 2319 1581 2169 
Q 1719 2375 1834 2534 
L 2394 3319 
L 3066 3319 
L 1919 1756 
L 3153 0 
L 2463 0 
L 1781 1031 
L 1600 1309 
L 728 0 
L 47 0 
z
" transform="scale(0.015625)"/>
       </defs>
       <use xlink:href="#ArialMT-54"/>
       <use xlink:href="#ArialMT-79" x="55.583984"/>
       <use xlink:href="#ArialMT-70" x="105.583984"/>
       <use xlink:href="#ArialMT-68" x="161.199219"/>
       <use xlink:href="#ArialMT-6f" x="216.814453"/>
       <use xlink:href="#ArialMT-6f" x="272.429688"/>
       <use xlink:href="#ArialMT-6e" x="328.044922"/>
       <use xlink:href="#ArialMT-20" x="383.660156"/>
       <use xlink:href="#ArialMT-56" x="411.443359"/>
       <use xlink:href="#ArialMT-31" x="478.142578"/>
       <use xlink:href="#ArialMT-2e" x="533.757812"/>
       <use xlink:href="#ArialMT-35" x="561.541016"/>
       <use xlink:href="#ArialMT-78" x="617.15625"/>
       <use xlink:href="#ArialMT-2d" x="667.15625"/>
      </g>
      <!-- Llama3 8B Instruct -->
      <g style="fill: #008b8b" transform="translate(671.730039 305.332606) rotate(-50) scale(0.16 -0.16)">
       <use xlink:href="#ArialMT-4c"/>
       <use xlink:href="#ArialMT-6c" x="55.615234"/>
       <use xlink:href="#ArialMT-61" x="77.832031"/>
       <use xlink:href="#ArialMT-6d" x="133.447266"/>
       <use xlink:href="#ArialMT-61" x="216.748047"/>
       <use xlink:href="#ArialMT-33" x="272.363281"/>
       <use xlink:href="#ArialMT-20" x="327.978516"/>
       <use xlink:href="#ArialMT-38" x="355.761719"/>
       <use xlink:href="#ArialMT-42" x="411.376953"/>
       <use xlink:href="#ArialMT-20" x="478.076172"/>
       <use xlink:href="#ArialMT-49" x="505.859375"/>
       <use xlink:href="#ArialMT-6e" x="533.642578"/>
       <use xlink:href="#ArialMT-73" x="589.257812"/>
       <use xlink:href="#ArialMT-74" x="639.257812"/>
       <use xlink:href="#ArialMT-72" x="667.041016"/>
       <use xlink:href="#ArialMT-75" x="700.341797"/>
       <use xlink:href="#ArialMT-63" x="755.957031"/>
       <use xlink:href="#ArialMT-74" x="805.957031"/>
      </g>
     </g>
    </g>
    <g id="xtick_9">
     <g id="text_9">
      <!-- Llama3.1 8B Instruct -->
      <g style="fill: #008b8b" transform="translate(756.153646 304.524604) rotate(-50) scale(0.16 -0.16)">
       <use xlink:href="#ArialMT-4c"/>
       <use xlink:href="#ArialMT-6c" x="55.615234"/>
       <use xlink:href="#ArialMT-61" x="77.832031"/>
       <use xlink:href="#ArialMT-6d" x="133.447266"/>
       <use xlink:href="#ArialMT-61" x="216.748047"/>
       <use xlink:href="#ArialMT-33" x="272.363281"/>
       <use xlink:href="#ArialMT-2e" x="327.978516"/>
       <use xlink:href="#ArialMT-31" x="355.761719"/>
       <use xlink:href="#ArialMT-20" x="411.376953"/>
       <use xlink:href="#ArialMT-38" x="439.160156"/>
       <use xlink:href="#ArialMT-42" x="494.775391"/>
       <use xlink:href="#ArialMT-20" x="561.474609"/>
       <use xlink:href="#ArialMT-49" x="589.257812"/>
       <use xlink:href="#ArialMT-6e" x="617.041016"/>
       <use xlink:href="#ArialMT-73" x="672.65625"/>
       <use xlink:href="#ArialMT-74" x="722.65625"/>
       <use xlink:href="#ArialMT-72" x="750.439453"/>
       <use xlink:href="#ArialMT-75" x="783.740234"/>
       <use xlink:href="#ArialMT-63" x="839.355469"/>
       <use xlink:href="#ArialMT-74" x="889.355469"/>
      </g>
     </g>
    </g>
   </g>
   <g id="matplotlib.axis_2">
    <g id="ytick_1">
     <g id="line2d_1">
      <path d="M 62.4075 168.46916 
L 899.4075 168.46916 
" clip-path="url(#pe2331c60af)" style="fill: none; stroke: #cccccc; stroke-linecap: round"/>
     </g>
     <g id="text_10">
      <!-- 0 -->
      <g style="fill: #008b8b" transform="translate(44.01 174.19541) scale(0.16 -0.16)">
       <defs>
        <path id="ArialMT-30" d="M 266 2259 
Q 266 3072 433 3567 
Q 600 4063 929 4331 
Q 1259 4600 1759 4600 
Q 2128 4600 2406 4451 
Q 2684 4303 2865 4023 
Q 3047 3744 3150 3342 
Q 3253 2941 3253 2259 
Q 3253 1453 3087 958 
Q 2922 463 2592 192 
Q 2263 -78 1759 -78 
Q 1097 -78 719 397 
Q 266 969 266 2259 
z
M 844 2259 
Q 844 1131 1108 757 
Q 1372 384 1759 384 
Q 2147 384 2411 759 
Q 2675 1134 2675 2259 
Q 2675 3391 2411 3762 
Q 2147 4134 1753 4134 
Q 1366 4134 1134 3806 
Q 844 3388 844 2259 
z
" transform="scale(0.015625)"/>
       </defs>
       <use xlink:href="#ArialMT-30"/>
      </g>
     </g>
    </g>
    <g id="ytick_2">
     <g id="line2d_2">
      <path d="M 62.4075 137.360578 
L 899.4075 137.360578 
" clip-path="url(#pe2331c60af)" style="fill: none; stroke: #cccccc; stroke-linecap: round"/>
     </g>
     <g id="text_11">
      <!-- 20 -->
      <g style="fill: #008b8b" transform="translate(35.1125 143.086828) scale(0.16 -0.16)">
       <use xlink:href="#ArialMT-32"/>
       <use xlink:href="#ArialMT-30" x="55.615234"/>
      </g>
     </g>
    </g>
    <g id="ytick_3">
     <g id="line2d_3">
      <path d="M 62.4075 106.251996 
L 899.4075 106.251996 
" clip-path="url(#pe2331c60af)" style="fill: none; stroke: #cccccc; stroke-linecap: round"/>
     </g>
     <g id="text_12">
      <!-- 40 -->
      <g style="fill: #008b8b" transform="translate(35.1125 111.978246) scale(0.16 -0.16)">
       <use xlink:href="#ArialMT-34"/>
       <use xlink:href="#ArialMT-30" x="55.615234"/>
      </g>
     </g>
    </g>
    <g id="ytick_4">
     <g id="line2d_4">
      <path d="M 62.4075 75.143414 
L 899.4075 75.143414 
" clip-path="url(#pe2331c60af)" style="fill: none; stroke: #cccccc; stroke-linecap: round"/>
     </g>
     <g id="text_13">
      <!-- 60 -->
      <g style="fill: #008b8b" transform="translate(35.1125 80.869664) scale(0.16 -0.16)">
       <defs>
        <path id="ArialMT-36" d="M 3184 3459 
L 2625 3416 
Q 2550 3747 2413 3897 
Q 2184 4138 1850 4138 
Q 1581 4138 1378 3988 
Q 1113 3794 959 3422 
Q 806 3050 800 2363 
Q 1003 2672 1297 2822 
Q 1591 2972 1913 2972 
Q 2475 2972 2870 2558 
Q 3266 2144 3266 1488 
Q 3266 1056 3080 686 
Q 2894 316 2569 119 
Q 2244 -78 1831 -78 
Q 1128 -78 684 439 
Q 241 956 241 2144 
Q 241 3472 731 4075 
Q 1159 4600 1884 4600 
Q 2425 4600 2770 4297 
Q 3116 3994 3184 3459 
z
M 888 1484 
Q 888 1194 1011 928 
Q 1134 663 1356 523 
Q 1578 384 1822 384 
Q 2178 384 2434 671 
Q 2691 959 2691 1453 
Q 2691 1928 2437 2201 
Q 2184 2475 1800 2475 
Q 1419 2475 1153 2201 
Q 888 1928 888 1484 
z
" transform="scale(0.015625)"/>
       </defs>
       <use xlink:href="#ArialMT-36"/>
       <use xlink:href="#ArialMT-30" x="55.615234"/>
      </g>
     </g>
    </g>
    <g id="ytick_5">
     <g id="line2d_5">
      <path d="M 62.4075 44.034832 
L 899.4075 44.034832 
" clip-path="url(#pe2331c60af)" style="fill: none; stroke: #cccccc; stroke-linecap: round"/>
     </g>
     <g id="text_14">
      <!-- 80 -->
      <g style="fill: #008b8b" transform="translate(35.1125 49.761082) scale(0.16 -0.16)">
       <use xlink:href="#ArialMT-38"/>
       <use xlink:href="#ArialMT-30" x="55.615234"/>
      </g>
     </g>
    </g>
    <g id="ytick_6">
     <g id="line2d_6">
      <path d="M 62.4075 12.92625 
L 899.4075 12.92625 
" clip-path="url(#pe2331c60af)" style="fill: none; stroke: #cccccc; stroke-linecap: round"/>
     </g>
     <g id="text_15">
      <!-- 100 -->
      <g style="fill: #008b8b" transform="translate(26.215 18.6525) scale(0.16 -0.16)">
       <use xlink:href="#ArialMT-31"/>
       <use xlink:href="#ArialMT-30" x="55.615234"/>
       <use xlink:href="#ArialMT-30" x="111.230469"/>
      </g>
     </g>
    </g>
    <g id="text_16">
     <!-- Weighted F1 Score -->
     <g style="fill: #008b8b" transform="translate(18.8475 163.966963) rotate(-90) scale(0.16 -0.16)">
      <defs>
       <path id="Arial-BoldMT-57" d="M 1116 0 
L 22 4581 
L 969 4581 
L 1659 1434 
L 2497 4581 
L 3597 4581 
L 4400 1381 
L 5103 4581 
L 6034 4581 
L 4922 0 
L 3941 0 
L 3028 3425 
L 2119 0 
L 1116 0 
z
" transform="scale(0.015625)"/>
       <path id="Arial-BoldMT-65" d="M 2381 1056 
L 3256 909 
Q 3088 428 2723 176 
Q 2359 -75 1813 -75 
Q 947 -75 531 491 
Q 203 944 203 1634 
Q 203 2459 634 2926 
Q 1066 3394 1725 3394 
Q 2466 3394 2894 2905 
Q 3322 2416 3303 1406 
L 1103 1406 
Q 1113 1016 1316 798 
Q 1519 581 1822 581 
Q 2028 581 2168 693 
Q 2309 806 2381 1056 
z
M 2431 1944 
Q 2422 2325 2234 2523 
Q 2047 2722 1778 2722 
Q 1491 2722 1303 2513 
Q 1116 2303 1119 1944 
L 2431 1944 
z
" transform="scale(0.015625)"/>
       <path id="Arial-BoldMT-69" d="M 459 3769 
L 459 4581 
L 1338 4581 
L 1338 3769 
L 459 3769 
z
M 459 0 
L 459 3319 
L 1338 3319 
L 1338 0 
L 459 0 
z
" transform="scale(0.015625)"/>
       <path id="Arial-BoldMT-67" d="M 378 -219 
L 1381 -341 
Q 1406 -516 1497 -581 
Q 1622 -675 1891 -675 
Q 2234 -675 2406 -572 
Q 2522 -503 2581 -350 
Q 2622 -241 2622 53 
L 2622 538 
Q 2228 0 1628 0 
Q 959 0 569 566 
Q 263 1013 263 1678 
Q 263 2513 664 2953 
Q 1066 3394 1663 3394 
Q 2278 3394 2678 2853 
L 2678 3319 
L 3500 3319 
L 3500 341 
Q 3500 -247 3403 -537 
Q 3306 -828 3131 -993 
Q 2956 -1159 2664 -1253 
Q 2372 -1347 1925 -1347 
Q 1081 -1347 728 -1058 
Q 375 -769 375 -325 
Q 375 -281 378 -219 
z
M 1163 1728 
Q 1163 1200 1367 954 
Q 1572 709 1872 709 
Q 2194 709 2416 961 
Q 2638 1213 2638 1706 
Q 2638 2222 2425 2472 
Q 2213 2722 1888 2722 
Q 1572 2722 1367 2476 
Q 1163 2231 1163 1728 
z
" transform="scale(0.015625)"/>
       <path id="Arial-BoldMT-68" d="M 1334 4581 
L 1334 2897 
Q 1759 3394 2350 3394 
Q 2653 3394 2897 3281 
Q 3141 3169 3264 2994 
Q 3388 2819 3433 2606 
Q 3478 2394 3478 1947 
L 3478 0 
L 2600 0 
L 2600 1753 
Q 2600 2275 2550 2415 
Q 2500 2556 2373 2639 
Q 2247 2722 2056 2722 
Q 1838 2722 1666 2615 
Q 1494 2509 1414 2295 
Q 1334 2081 1334 1663 
L 1334 0 
L 456 0 
L 456 4581 
L 1334 4581 
z
" transform="scale(0.015625)"/>
       <path id="Arial-BoldMT-74" d="M 1981 3319 
L 1981 2619 
L 1381 2619 
L 1381 1281 
Q 1381 875 1398 808 
Q 1416 741 1477 697 
Q 1538 653 1625 653 
Q 1747 653 1978 738 
L 2053 56 
Q 1747 -75 1359 -75 
Q 1122 -75 931 4 
Q 741 84 652 211 
Q 563 338 528 553 
Q 500 706 500 1172 
L 500 2619 
L 97 2619 
L 97 3319 
L 500 3319 
L 500 3978 
L 1381 4491 
L 1381 3319 
L 1981 3319 
z
" transform="scale(0.015625)"/>
       <path id="Arial-BoldMT-64" d="M 3503 0 
L 2688 0 
L 2688 488 
Q 2484 203 2207 64 
Q 1931 -75 1650 -75 
Q 1078 -75 670 386 
Q 263 847 263 1672 
Q 263 2516 659 2955 
Q 1056 3394 1663 3394 
Q 2219 3394 2625 2931 
L 2625 4581 
L 3503 4581 
L 3503 0 
z
M 1159 1731 
Q 1159 1200 1306 963 
Q 1519 619 1900 619 
Q 2203 619 2415 876 
Q 2628 1134 2628 1647 
Q 2628 2219 2422 2470 
Q 2216 2722 1894 2722 
Q 1581 2722 1370 2473 
Q 1159 2225 1159 1731 
z
" transform="scale(0.015625)"/>
       <path id="Arial-BoldMT-20" transform="scale(0.015625)"/>
       <path id="Arial-BoldMT-46" d="M 472 0 
L 472 4581 
L 3613 4581 
L 3613 3806 
L 1397 3806 
L 1397 2722 
L 3309 2722 
L 3309 1947 
L 1397 1947 
L 1397 0 
L 472 0 
z
" transform="scale(0.015625)"/>
       <path id="Arial-BoldMT-31" d="M 2519 0 
L 1641 0 
L 1641 3309 
Q 1159 2859 506 2644 
L 506 3441 
Q 850 3553 1253 3867 
Q 1656 4181 1806 4600 
L 2519 4600 
L 2519 0 
z
" transform="scale(0.015625)"/>
       <path id="Arial-BoldMT-53" d="M 231 1491 
L 1131 1578 
Q 1213 1125 1461 912 
Q 1709 700 2131 700 
Q 2578 700 2804 889 
Q 3031 1078 3031 1331 
Q 3031 1494 2936 1608 
Q 2841 1722 2603 1806 
Q 2441 1863 1863 2006 
Q 1119 2191 819 2459 
Q 397 2838 397 3381 
Q 397 3731 595 4036 
Q 794 4341 1167 4500 
Q 1541 4659 2069 4659 
Q 2931 4659 3367 4281 
Q 3803 3903 3825 3272 
L 2900 3231 
Q 2841 3584 2645 3739 
Q 2450 3894 2059 3894 
Q 1656 3894 1428 3728 
Q 1281 3622 1281 3444 
Q 1281 3281 1419 3166 
Q 1594 3019 2269 2859 
Q 2944 2700 3267 2529 
Q 3591 2359 3773 2064 
Q 3956 1769 3956 1334 
Q 3956 941 3737 597 
Q 3519 253 3119 86 
Q 2719 -81 2122 -81 
Q 1253 -81 787 320 
Q 322 722 231 1491 
z
" transform="scale(0.015625)"/>
       <path id="Arial-BoldMT-63" d="M 3353 2338 
L 2488 2181 
Q 2444 2441 2289 2572 
Q 2134 2703 1888 2703 
Q 1559 2703 1364 2476 
Q 1169 2250 1169 1719 
Q 1169 1128 1367 884 
Q 1566 641 1900 641 
Q 2150 641 2309 783 
Q 2469 925 2534 1272 
L 3397 1125 
Q 3263 531 2881 228 
Q 2500 -75 1859 -75 
Q 1131 -75 698 384 
Q 266 844 266 1656 
Q 266 2478 700 2936 
Q 1134 3394 1875 3394 
Q 2481 3394 2839 3133 
Q 3197 2872 3353 2338 
z
" transform="scale(0.015625)"/>
       <path id="Arial-BoldMT-6f" d="M 256 1706 
Q 256 2144 472 2553 
Q 688 2963 1083 3178 
Q 1478 3394 1966 3394 
Q 2719 3394 3200 2905 
Q 3681 2416 3681 1669 
Q 3681 916 3195 420 
Q 2709 -75 1972 -75 
Q 1516 -75 1102 131 
Q 688 338 472 736 
Q 256 1134 256 1706 
z
M 1156 1659 
Q 1156 1166 1390 903 
Q 1625 641 1969 641 
Q 2313 641 2545 903 
Q 2778 1166 2778 1666 
Q 2778 2153 2545 2415 
Q 2313 2678 1969 2678 
Q 1625 2678 1390 2415 
Q 1156 2153 1156 1659 
z
" transform="scale(0.015625)"/>
       <path id="Arial-BoldMT-72" d="M 1300 0 
L 422 0 
L 422 3319 
L 1238 3319 
L 1238 2847 
Q 1447 3181 1614 3287 
Q 1781 3394 1994 3394 
Q 2294 3394 2572 3228 
L 2300 2463 
Q 2078 2606 1888 2606 
Q 1703 2606 1575 2504 
Q 1447 2403 1373 2137 
Q 1300 1872 1300 1025 
L 1300 0 
z
" transform="scale(0.015625)"/>
      </defs>
      <use xlink:href="#Arial-BoldMT-57"/>
      <use xlink:href="#Arial-BoldMT-65" x="92.634766"/>
      <use xlink:href="#Arial-BoldMT-69" x="148.25"/>
      <use xlink:href="#Arial-BoldMT-67" x="176.033203"/>
      <use xlink:href="#Arial-BoldMT-68" x="237.117188"/>
      <use xlink:href="#Arial-BoldMT-74" x="298.201172"/>
      <use xlink:href="#Arial-BoldMT-65" x="331.501953"/>
      <use xlink:href="#Arial-BoldMT-64" x="387.117188"/>
      <use xlink:href="#Arial-BoldMT-20" x="448.201172"/>
      <use xlink:href="#Arial-BoldMT-46" x="475.984375"/>
      <use xlink:href="#Arial-BoldMT-31" x="537.068359"/>
      <use xlink:href="#Arial-BoldMT-20" x="592.683594"/>
      <use xlink:href="#Arial-BoldMT-53" x="620.466797"/>
      <use xlink:href="#Arial-BoldMT-63" x="687.166016"/>
      <use xlink:href="#Arial-BoldMT-6f" x="742.78125"/>
      <use xlink:href="#Arial-BoldMT-72" x="803.865234"/>
      <use xlink:href="#Arial-BoldMT-65" x="842.78125"/>
     </g>
    </g>
   </g>
   <g id="PatchCollection_1">
    <path d="M 99.6075 155.001708 
L 118.2075 155.001708 
L 118.2075 143.849767 
L 99.6075 143.849767 
z
" clip-path="url(#pe2331c60af)" style="fill: #cdcdcd; stroke: #000000; stroke-width: 1.5"/>
    <path d="M 90.3075 143.849767 
L 127.5075 143.849767 
L 127.5075 110.618388 
L 90.3075 110.618388 
z
" clip-path="url(#pe2331c60af)" style="fill: #c4c4c4; stroke: #000000; stroke-width: 1.5"/>
    <path d="M 71.7075 110.618388 
L 146.1075 110.618388 
L 146.1075 46.110917 
L 71.7075 46.110917 
z
" clip-path="url(#pe2331c60af)" style="fill: #b8b8b8; stroke: #000000; stroke-width: 1.5"/>
    <path d="M 90.3075 46.110917 
L 127.5075 46.110917 
L 127.5075 35.356144 
L 90.3075 35.356144 
z
" clip-path="url(#pe2331c60af)" style="fill: #c4c4c4; stroke: #000000; stroke-width: 1.5"/>
    <path d="M 99.6075 35.356144 
L 118.2075 35.356144 
L 118.2075 32.594295 
L 99.6075 32.594295 
z
" clip-path="url(#pe2331c60af)" style="fill: #cdcdcd; stroke: #000000; stroke-width: 1.5"/>
   </g>
   <g id="PathCollection_1">
    <defs>
     <path id="C0_0_bc6d2dca6f" d="M 0 2.5 
C 0.663008 2.5 1.29895 2.236584 1.767767 1.767767 
C 2.236584 1.29895 2.5 0.663008 2.5 -0 
C 2.5 -0.663008 2.236584 -1.29895 1.767767 -1.767767 
C 1.29895 -2.236584 0.663008 -2.5 0 -2.5 
C -0.663008 -2.5 -1.29895 -2.236584 -1.767767 -1.767767 
C -2.236584 -1.29895 -2.5 -0.663008 -2.5 0 
C -2.5 0.663008 -2.236584 1.29895 -1.767767 1.767767 
C -1.29895 2.236584 -0.663008 2.5 0 2.5 
z
"/>
    </defs>
    <g clip-path="url(#pe2331c60af)">
     <use xlink:href="#C0_0_bc6d2dca6f" x="108.9075" y="166.250928" style="fill: none; stroke: #737373"/>
    </g>
    <g clip-path="url(#pe2331c60af)">
     <use xlink:href="#C0_0_bc6d2dca6f" x="108.9075" y="163.327267" style="fill: none; stroke: #737373"/>
    </g>
    <g clip-path="url(#pe2331c60af)">
     <use xlink:href="#C0_0_bc6d2dca6f" x="108.9075" y="155.179097" style="fill: none; stroke: #737373"/>
    </g>
    <g clip-path="url(#pe2331c60af)">
     <use xlink:href="#C0_0_bc6d2dca6f" x="108.9075" y="164.652681" style="fill: none; stroke: #737373"/>
    </g>
    <g clip-path="url(#pe2331c60af)">
     <use xlink:href="#C0_0_bc6d2dca6f" x="108.9075" y="158.295007" style="fill: none; stroke: #737373"/>
    </g>
    <g clip-path="url(#pe2331c60af)">
     <use xlink:href="#C0_0_bc6d2dca6f" x="108.9075" y="17.005269" style="fill: none; stroke: #737373"/>
    </g>
    <g clip-path="url(#pe2331c60af)">
     <use xlink:href="#C0_0_bc6d2dca6f" x="108.9075" y="157.466711" style="fill: none; stroke: #737373"/>
    </g>
    <g clip-path="url(#pe2331c60af)">
     <use xlink:href="#C0_0_bc6d2dca6f" x="108.9075" y="167.699463" style="fill: none; stroke: #737373"/>
    </g>
    <g clip-path="url(#pe2331c60af)">
     <use xlink:href="#C0_0_bc6d2dca6f" x="108.9075" y="23.120347" style="fill: none; stroke: #737373"/>
    </g>
    <g clip-path="url(#pe2331c60af)">
     <use xlink:href="#C0_0_bc6d2dca6f" x="108.9075" y="164.174099" style="fill: none; stroke: #737373"/>
    </g>
    <g clip-path="url(#pe2331c60af)">
     <use xlink:href="#C0_0_bc6d2dca6f" x="108.9075" y="16.499463" style="fill: none; stroke: #737373"/>
    </g>
    <g clip-path="url(#pe2331c60af)">
     <use xlink:href="#C0_0_bc6d2dca6f" x="108.9075" y="32.56702" style="fill: none; stroke: #737373"/>
    </g>
    <g clip-path="url(#pe2331c60af)">
     <use xlink:href="#C0_0_bc6d2dca6f" x="108.9075" y="29.590707" style="fill: none; stroke: #737373"/>
    </g>
    <g clip-path="url(#pe2331c60af)">
     <use xlink:href="#C0_0_bc6d2dca6f" x="108.9075" y="25.752227" style="fill: none; stroke: #737373"/>
    </g>
    <g clip-path="url(#pe2331c60af)">
     <use xlink:href="#C0_0_bc6d2dca6f" x="108.9075" y="26.715344" style="fill: none; stroke: #737373"/>
    </g>
    <g clip-path="url(#pe2331c60af)">
     <use xlink:href="#C0_0_bc6d2dca6f" x="108.9075" y="26.579647" style="fill: none; stroke: #737373"/>
    </g>
    <g clip-path="url(#pe2331c60af)">
     <use xlink:href="#C0_0_bc6d2dca6f" x="108.9075" y="25.925642" style="fill: none; stroke: #737373"/>
    </g>
    <g clip-path="url(#pe2331c60af)">
     <use xlink:href="#C0_0_bc6d2dca6f" x="108.9075" y="164.810433" style="fill: none; stroke: #737373"/>
    </g>
   </g>
   <g id="PatchCollection_2">
    <path d="M 192.6075 103.552485 
L 211.2075 103.552485 
L 211.2075 101.719151 
L 192.6075 101.719151 
z
" clip-path="url(#pe2331c60af)" style="fill: #cdcdcd; stroke: #000000; stroke-width: 1.5"/>
    <path d="M 183.3075 101.719151 
L 220.5075 101.719151 
L 220.5075 98.052482 
L 183.3075 98.052482 
z
" clip-path="url(#pe2331c60af)" style="fill: #c4c4c4; stroke: #000000; stroke-width: 1.5"/>
    <path d="M 164.7075 98.052482 
L 239.1075 98.052482 
L 239.1075 50.991699 
L 164.7075 50.991699 
z
" clip-path="url(#pe2331c60af)" style="fill: #b8b8b8; stroke: #000000; stroke-width: 1.5"/>
    <path d="M 183.3075 50.991699 
L 220.5075 50.991699 
L 220.5075 45.605167 
L 183.3075 45.605167 
z
" clip-path="url(#pe2331c60af)" style="fill: #c4c4c4; stroke: #000000; stroke-width: 1.5"/>
    <path d="M 192.6075 45.605167 
L 211.2075 45.605167 
L 211.2075 42.911901 
L 192.6075 42.911901 
z
" clip-path="url(#pe2331c60af)" style="fill: #cdcdcd; stroke: #000000; stroke-width: 1.5"/>
   </g>
   <g id="PathCollection_2">
    <defs>
     <path id="C1_0_cfa0f2ac8f" d="M 0 2.5 
C 0.663008 2.5 1.29895 2.236584 1.767767 1.767767 
C 2.236584 1.29895 2.5 0.663008 2.5 -0 
C 2.5 -0.663008 2.236584 -1.29895 1.767767 -1.767767 
C 1.29895 -2.236584 0.663008 -2.5 0 -2.5 
C -0.663008 -2.5 -1.29895 -2.236584 -1.767767 -1.767767 
C -2.236584 -1.29895 -2.5 -0.663008 -2.5 0 
C -2.5 0.663008 -2.236584 1.29895 -1.767767 1.767767 
C -1.29895 2.236584 -0.663008 2.5 0 2.5 
z
"/>
    </defs>
    <g clip-path="url(#pe2331c60af)">
     <use xlink:href="#C1_0_cfa0f2ac8f" x="201.9075" y="105.385819" style="fill: none; stroke: #737373"/>
    </g>
    <g clip-path="url(#pe2331c60af)">
     <use xlink:href="#C1_0_cfa0f2ac8f" x="201.9075" y="40.218635" style="fill: none; stroke: #737373"/>
    </g>
   </g>
   <g id="PatchCollection_3">
    <path d="M 285.6075 155.984708 
L 304.2075 155.984708 
L 304.2075 155.804294 
L 285.6075 155.804294 
z
" clip-path="url(#pe2331c60af)" style="fill: #df7efa; stroke: #000000; stroke-width: 1.5"/>
    <path d="M 276.3075 155.804294 
L 313.5075 155.804294 
L 313.5075 155.443467 
L 276.3075 155.443467 
z
" clip-path="url(#pe2331c60af)" style="fill: #da60fd; stroke: #000000; stroke-width: 1.5"/>
    <path d="M 257.7075 155.443467 
L 332.1075 155.443467 
L 332.1075 129.524298 
L 257.7075 129.524298 
z
" clip-path="url(#pe2331c60af)" style="fill: #d43bff; stroke: #000000; stroke-width: 1.5"/>
    <path d="M 276.3075 129.524298 
L 313.5075 129.524298 
L 313.5075 123.07291 
L 276.3075 123.07291 
z
" clip-path="url(#pe2331c60af)" style="fill: #da60fd; stroke: #000000; stroke-width: 1.5"/>
    <path d="M 285.6075 123.07291 
L 304.2075 123.07291 
L 304.2075 119.847217 
L 285.6075 119.847217 
z
" clip-path="url(#pe2331c60af)" style="fill: #df7efa; stroke: #000000; stroke-width: 1.5"/>
   </g>
   <g id="PathCollection_3">
    <defs>
     <path id="C2_0_110a9cc23f" d="M 0 2.5 
C 0.663008 2.5 1.29895 2.236584 1.767767 1.767767 
C 2.236584 1.29895 2.5 0.663008 2.5 -0 
C 2.5 -0.663008 2.236584 -1.29895 1.767767 -1.767767 
C 1.29895 -2.236584 0.663008 -2.5 0 -2.5 
C -0.663008 -2.5 -1.29895 -2.236584 -1.767767 -1.767767 
C -2.236584 -1.29895 -2.5 -0.663008 -2.5 0 
C -2.5 0.663008 -2.236584 1.29895 -1.767767 1.767767 
C -1.29895 2.236584 -0.663008 2.5 0 2.5 
z
"/>
    </defs>
    <g clip-path="url(#pe2331c60af)">
     <use xlink:href="#C2_0_110a9cc23f" x="294.9075" y="116.621523" style="fill: none; stroke: #737373"/>
    </g>
    <g clip-path="url(#pe2331c60af)">
     <use xlink:href="#C2_0_110a9cc23f" x="294.9075" y="156.165122" style="fill: none; stroke: #737373"/>
    </g>
   </g>
   <g id="PatchCollection_4">
    <path d="M 378.6075 118.421787 
L 397.2075 118.421787 
L 397.2075 117.184286 
L 378.6075 117.184286 
z
" clip-path="url(#pe2331c60af)" style="fill: #6efbd2; stroke: #000000; stroke-width: 1.5"/>
    <path d="M 369.3075 117.184286 
L 406.5075 117.184286 
L 406.5075 114.709284 
L 369.3075 114.709284 
z
" clip-path="url(#pe2331c60af)" style="fill: #4efdcb; stroke: #000000; stroke-width: 1.5"/>
    <path d="M 350.7075 114.709284 
L 425.1075 114.709284 
L 425.1075 86.646741 
L 350.7075 86.646741 
z
" clip-path="url(#pe2331c60af)" style="fill: #26ffc2; stroke: #000000; stroke-width: 1.5"/>
    <path d="M 369.3075 86.646741 
L 406.5075 86.646741 
L 406.5075 81.347345 
L 369.3075 81.347345 
z
" clip-path="url(#pe2331c60af)" style="fill: #4efdcb; stroke: #000000; stroke-width: 1.5"/>
    <path d="M 378.6075 81.347345 
L 397.2075 81.347345 
L 397.2075 78.697646 
L 378.6075 78.697646 
z
" clip-path="url(#pe2331c60af)" style="fill: #6efbd2; stroke: #000000; stroke-width: 1.5"/>
   </g>
   <g id="PathCollection_4">
    <defs>
     <path id="C3_0_92bbc7cc10" d="M 0 2.5 
C 0.663008 2.5 1.29895 2.236584 1.767767 1.767767 
C 2.236584 1.29895 2.5 0.663008 2.5 -0 
C 2.5 -0.663008 2.236584 -1.29895 1.767767 -1.767767 
C 1.29895 -2.236584 0.663008 -2.5 0 -2.5 
C -0.663008 -2.5 -1.29895 -2.236584 -1.767767 -1.767767 
C -2.236584 -1.29895 -2.5 -0.663008 -2.5 0 
C -2.5 0.663008 -2.236584 1.29895 -1.767767 1.767767 
C -1.29895 2.236584 -0.663008 2.5 0 2.5 
z
"/>
    </defs>
    <g clip-path="url(#pe2331c60af)">
     <use xlink:href="#C3_0_92bbc7cc10" x="387.9075" y="76.047948" style="fill: none; stroke: #737373"/>
    </g>
    <g clip-path="url(#pe2331c60af)">
     <use xlink:href="#C3_0_92bbc7cc10" x="387.9075" y="119.659287" style="fill: none; stroke: #737373"/>
    </g>
   </g>
   <g id="PatchCollection_5">
    <path d="M 471.6075 111.13768 
L 490.2075 111.13768 
L 490.2075 109.203649 
L 471.6075 109.203649 
z
" clip-path="url(#pe2331c60af)" style="fill: #6efbd2; stroke: #000000; stroke-width: 1.5"/>
    <path d="M 462.3075 109.203649 
L 499.5075 109.203649 
L 499.5075 105.335588 
L 462.3075 105.335588 
z
" clip-path="url(#pe2331c60af)" style="fill: #4efdcb; stroke: #000000; stroke-width: 1.5"/>
    <path d="M 443.7075 105.335588 
L 518.1075 105.335588 
L 518.1075 84.230885 
L 443.7075 84.230885 
z
" clip-path="url(#pe2331c60af)" style="fill: #26ffc2; stroke: #000000; stroke-width: 1.5"/>
    <path d="M 462.3075 84.230885 
L 499.5075 84.230885 
L 499.5075 78.586929 
L 462.3075 78.586929 
z
" clip-path="url(#pe2331c60af)" style="fill: #4efdcb; stroke: #000000; stroke-width: 1.5"/>
    <path d="M 471.6075 78.586929 
L 490.2075 78.586929 
L 490.2075 75.764951 
L 471.6075 75.764951 
z
" clip-path="url(#pe2331c60af)" style="fill: #6efbd2; stroke: #000000; stroke-width: 1.5"/>
   </g>
   <g id="PathCollection_5">
    <defs>
     <path id="C4_0_a500cb7e68" d="M 0 2.5 
C 0.663008 2.5 1.29895 2.236584 1.767767 1.767767 
C 2.236584 1.29895 2.5 0.663008 2.5 -0 
C 2.5 -0.663008 2.236584 -1.29895 1.767767 -1.767767 
C 1.29895 -2.236584 0.663008 -2.5 0 -2.5 
C -0.663008 -2.5 -1.29895 -2.236584 -1.767767 -1.767767 
C -2.236584 -1.29895 -2.5 -0.663008 -2.5 0 
C -2.5 0.663008 -2.236584 1.29895 -1.767767 1.767767 
C -1.29895 2.236584 -0.663008 2.5 0 2.5 
z
"/>
    </defs>
    <g clip-path="url(#pe2331c60af)">
     <use xlink:href="#C4_0_a500cb7e68" x="480.9075" y="113.071711" style="fill: none; stroke: #737373"/>
    </g>
    <g clip-path="url(#pe2331c60af)">
     <use xlink:href="#C4_0_a500cb7e68" x="480.9075" y="72.942973" style="fill: none; stroke: #737373"/>
    </g>
   </g>
   <g id="PatchCollection_6">
    <path d="M 564.6075 107.274867 
L 583.2075 107.274867 
L 583.2075 104.904519 
L 564.6075 104.904519 
z
" clip-path="url(#pe2331c60af)" style="fill: #fbc788; stroke: #000000; stroke-width: 1.5"/>
    <path d="M 555.3075 104.904519 
L 592.5075 104.904519 
L 592.5075 100.163823 
L 555.3075 100.163823 
z
" clip-path="url(#pe2331c60af)" style="fill: #fdbc6e; stroke: #000000; stroke-width: 1.5"/>
    <path d="M 536.7075 100.163823 
L 611.1075 100.163823 
L 611.1075 82.198305 
L 536.7075 82.198305 
z
" clip-path="url(#pe2331c60af)" style="fill: #ffaf4d; stroke: #000000; stroke-width: 1.5"/>
    <path d="M 555.3075 82.198305 
L 592.5075 82.198305 
L 592.5075 78.276028 
L 555.3075 78.276028 
z
" clip-path="url(#pe2331c60af)" style="fill: #fdbc6e; stroke: #000000; stroke-width: 1.5"/>
    <path d="M 564.6075 78.276028 
L 583.2075 78.276028 
L 583.2075 76.31489 
L 564.6075 76.31489 
z
" clip-path="url(#pe2331c60af)" style="fill: #fbc788; stroke: #000000; stroke-width: 1.5"/>
   </g>
   <g id="PathCollection_6">
    <defs>
     <path id="C5_0_57ec14e778" d="M 0 2.5 
C 0.663008 2.5 1.29895 2.236584 1.767767 1.767767 
C 2.236584 1.29895 2.5 0.663008 2.5 -0 
C 2.5 -0.663008 2.236584 -1.29895 1.767767 -1.767767 
C 1.29895 -2.236584 0.663008 -2.5 0 -2.5 
C -0.663008 -2.5 -1.29895 -2.236584 -1.767767 -1.767767 
C -2.236584 -1.29895 -2.5 -0.663008 -2.5 0 
C -2.5 0.663008 -2.236584 1.29895 -1.767767 1.767767 
C -1.29895 2.236584 -0.663008 2.5 0 2.5 
z
"/>
    </defs>
    <g clip-path="url(#pe2331c60af)">
     <use xlink:href="#C5_0_57ec14e778" x="573.9075" y="109.645215" style="fill: none; stroke: #737373"/>
    </g>
    <g clip-path="url(#pe2331c60af)">
     <use xlink:href="#C5_0_57ec14e778" x="573.9075" y="74.353751" style="fill: none; stroke: #737373"/>
    </g>
   </g>
   <g id="PatchCollection_7">
    <path d="M 657.6075 112.039761 
L 676.2075 112.039761 
L 676.2075 109.046653 
L 657.6075 109.046653 
z
" clip-path="url(#pe2331c60af)" style="fill: #70b6fa; stroke: #000000; stroke-width: 1.5"/>
    <path d="M 648.3075 109.046653 
L 685.5075 109.046653 
L 685.5075 103.060436 
L 648.3075 103.060436 
z
" clip-path="url(#pe2331c60af)" style="fill: #4fa6fd; stroke: #000000; stroke-width: 1.5"/>
    <path d="M 629.7075 103.060436 
L 704.1075 103.060436 
L 704.1075 75.682757 
L 629.7075 75.682757 
z
" clip-path="url(#pe2331c60af)" style="fill: #2693ff; stroke: #000000; stroke-width: 1.5"/>
    <path d="M 648.3075 75.682757 
L 685.5075 75.682757 
L 685.5075 72.05052 
L 648.3075 72.05052 
z
" clip-path="url(#pe2331c60af)" style="fill: #4fa6fd; stroke: #000000; stroke-width: 1.5"/>
    <path d="M 657.6075 72.05052 
L 676.2075 72.05052 
L 676.2075 70.234401 
L 657.6075 70.234401 
z
" clip-path="url(#pe2331c60af)" style="fill: #70b6fa; stroke: #000000; stroke-width: 1.5"/>
   </g>
   <g id="PathCollection_7">
    <defs>
     <path id="C6_0_74a66778d6" d="M 0 2.5 
C 0.663008 2.5 1.29895 2.236584 1.767767 1.767767 
C 2.236584 1.29895 2.5 0.663008 2.5 -0 
C 2.5 -0.663008 2.236584 -1.29895 1.767767 -1.767767 
C 1.29895 -2.236584 0.663008 -2.5 0 -2.5 
C -0.663008 -2.5 -1.29895 -2.236584 -1.767767 -1.767767 
C -2.236584 -1.29895 -2.5 -0.663008 -2.5 0 
C -2.5 0.663008 -2.236584 1.29895 -1.767767 1.767767 
C -1.29895 2.236584 -0.663008 2.5 0 2.5 
z
"/>
    </defs>
    <g clip-path="url(#pe2331c60af)">
     <use xlink:href="#C6_0_74a66778d6" x="666.9075" y="68.418283" style="fill: none; stroke: #737373"/>
    </g>
    <g clip-path="url(#pe2331c60af)">
     <use xlink:href="#C6_0_74a66778d6" x="666.9075" y="115.03287" style="fill: none; stroke: #737373"/>
    </g>
   </g>
   <g id="PatchCollection_8">
    <path d="M 750.6075 102.515011 
L 769.2075 102.515011 
L 769.2075 101.956216 
L 750.6075 101.956216 
z
" clip-path="url(#pe2331c60af)" style="fill: #70b6fa; stroke: #000000; stroke-width: 1.5"/>
    <path d="M 741.3075 101.956216 
L 778.5075 101.956216 
L 778.5075 100.838626 
L 741.3075 100.838626 
z
" clip-path="url(#pe2331c60af)" style="fill: #4fa6fd; stroke: #000000; stroke-width: 1.5"/>
    <path d="M 722.7075 100.838626 
L 797.1075 100.838626 
L 797.1075 50.655027 
L 722.7075 50.655027 
z
" clip-path="url(#pe2331c60af)" style="fill: #2693ff; stroke: #000000; stroke-width: 1.5"/>
    <path d="M 741.3075 50.655027 
L 778.5075 50.655027 
L 778.5075 47.069533 
L 741.3075 47.069533 
z
" clip-path="url(#pe2331c60af)" style="fill: #4fa6fd; stroke: #000000; stroke-width: 1.5"/>
    <path d="M 750.6075 47.069533 
L 769.2075 47.069533 
L 769.2075 45.276786 
L 750.6075 45.276786 
z
" clip-path="url(#pe2331c60af)" style="fill: #70b6fa; stroke: #000000; stroke-width: 1.5"/>
   </g>
   <g id="PathCollection_8">
    <defs>
     <path id="C7_0_712bba280d" d="M 0 2.5 
C 0.663008 2.5 1.29895 2.236584 1.767767 1.767767 
C 2.236584 1.29895 2.5 0.663008 2.5 -0 
C 2.5 -0.663008 2.236584 -1.29895 1.767767 -1.767767 
C 1.29895 -2.236584 0.663008 -2.5 0 -2.5 
C -0.663008 -2.5 -1.29895 -2.236584 -1.767767 -1.767767 
C -2.236584 -1.29895 -2.5 -0.663008 -2.5 0 
C -2.5 0.663008 -2.236584 1.29895 -1.767767 1.767767 
C -1.29895 2.236584 -0.663008 2.5 0 2.5 
z
"/>
    </defs>
    <g clip-path="url(#pe2331c60af)">
     <use xlink:href="#C7_0_712bba280d" x="759.9075" y="103.073806" style="fill: none; stroke: #737373"/>
    </g>
    <g clip-path="url(#pe2331c60af)">
     <use xlink:href="#C7_0_712bba280d" x="759.9075" y="43.48404" style="fill: none; stroke: #737373"/>
    </g>
   </g>
   <g id="PatchCollection_9">
    <path d="M 843.6075 103.456912 
L 862.2075 103.456912 
L 862.2075 101.156356 
L 843.6075 101.156356 
z
" clip-path="url(#pe2331c60af)" style="fill: #cdcdcd; stroke: #000000; stroke-width: 1.5"/>
    <path d="M 834.3075 101.156356 
L 871.5075 101.156356 
L 871.5075 96.555244 
L 834.3075 96.555244 
z
" clip-path="url(#pe2331c60af)" style="fill: #c4c4c4; stroke: #000000; stroke-width: 1.5"/>
    <path d="M 815.7075 96.555244 
L 890.1075 96.555244 
L 890.1075 52.771479 
L 815.7075 52.771479 
z
" clip-path="url(#pe2331c60af)" style="fill: #b8b8b8; stroke: #000000; stroke-width: 1.5"/>
    <path d="M 834.3075 52.771479 
L 871.5075 52.771479 
L 871.5075 48.677835 
L 834.3075 48.677835 
z
" clip-path="url(#pe2331c60af)" style="fill: #c4c4c4; stroke: #000000; stroke-width: 1.5"/>
    <path d="M 843.6075 48.677835 
L 862.2075 48.677835 
L 862.2075 46.631013 
L 843.6075 46.631013 
z
" clip-path="url(#pe2331c60af)" style="fill: #cdcdcd; stroke: #000000; stroke-width: 1.5"/>
   </g>
   <g id="PathCollection_9">
    <defs>
     <path id="C8_0_f6f3b9d0c4" d="M 0 2.5 
C 0.663008 2.5 1.29895 2.236584 1.767767 1.767767 
C 2.236584 1.29895 2.5 0.663008 2.5 -0 
C 2.5 -0.663008 2.236584 -1.29895 1.767767 -1.767767 
C 1.29895 -2.236584 0.663008 -2.5 0 -2.5 
C -0.663008 -2.5 -1.29895 -2.236584 -1.767767 -1.767767 
C -2.236584 -1.29895 -2.5 -0.663008 -2.5 0 
C -2.5 0.663008 -2.236584 1.29895 -1.767767 1.767767 
C -1.29895 2.236584 -0.663008 2.5 0 2.5 
z
"/>
    </defs>
    <g clip-path="url(#pe2331c60af)">
     <use xlink:href="#C8_0_f6f3b9d0c4" x="852.9075" y="44.584191" style="fill: none; stroke: #737373"/>
    </g>
    <g clip-path="url(#pe2331c60af)">
     <use xlink:href="#C8_0_f6f3b9d0c4" x="852.9075" y="105.757468" style="fill: none; stroke: #737373"/>
    </g>
   </g>
   <g id="patch_3">
    <path d="M 108.9075 168.46916 
L 108.9075 168.46916 
L 108.9075 168.46916 
L 108.9075 168.46916 
z
" clip-path="url(#pe2331c60af)" style="fill: #b8b8b8; stroke: #000000; stroke-width: 1.5; stroke-linejoin: miter"/>
   </g>
   <g id="patch_4">
    <path d="M 108.9075 168.46916 
L 108.9075 168.46916 
L 108.9075 168.46916 
L 108.9075 168.46916 
z
" clip-path="url(#pe2331c60af)" style="fill: #b8b8b8; stroke: #000000; stroke-width: 1.5; stroke-linejoin: miter"/>
   </g>
   <g id="patch_5">
    <path d="M 108.9075 168.46916 
L 108.9075 168.46916 
L 108.9075 168.46916 
L 108.9075 168.46916 
z
" clip-path="url(#pe2331c60af)" style="fill: #d43bff; stroke: #000000; stroke-width: 1.5; stroke-linejoin: miter"/>
   </g>
   <g id="patch_6">
    <path d="M 108.9075 168.46916 
L 108.9075 168.46916 
L 108.9075 168.46916 
L 108.9075 168.46916 
z
" clip-path="url(#pe2331c60af)" style="fill: #26ffc2; stroke: #000000; stroke-width: 1.5; stroke-linejoin: miter"/>
   </g>
   <g id="patch_7">
    <path d="M 108.9075 168.46916 
L 108.9075 168.46916 
L 108.9075 168.46916 
L 108.9075 168.46916 
z
" clip-path="url(#pe2331c60af)" style="fill: #26ffc2; stroke: #000000; stroke-width: 1.5; stroke-linejoin: miter"/>
   </g>
   <g id="patch_8">
    <path d="M 108.9075 168.46916 
L 108.9075 168.46916 
L 108.9075 168.46916 
L 108.9075 168.46916 
z
" clip-path="url(#pe2331c60af)" style="fill: #ffaf4d; stroke: #000000; stroke-width: 1.5; stroke-linejoin: miter"/>
   </g>
   <g id="patch_9">
    <path d="M 108.9075 168.46916 
L 108.9075 168.46916 
L 108.9075 168.46916 
L 108.9075 168.46916 
z
" clip-path="url(#pe2331c60af)" style="fill: #2693ff; stroke: #000000; stroke-width: 1.5; stroke-linejoin: miter"/>
   </g>
   <g id="patch_10">
    <path d="M 108.9075 168.46916 
L 108.9075 168.46916 
L 108.9075 168.46916 
L 108.9075 168.46916 
z
" clip-path="url(#pe2331c60af)" style="fill: #2693ff; stroke: #000000; stroke-width: 1.5; stroke-linejoin: miter"/>
   </g>
   <g id="patch_11">
    <path d="M 108.9075 168.46916 
L 108.9075 168.46916 
L 108.9075 168.46916 
L 108.9075 168.46916 
z
" clip-path="url(#pe2331c60af)" style="fill: #b8b8b8; stroke: #000000; stroke-width: 1.5; stroke-linejoin: miter"/>
   </g>
   <g id="line2d_7">
    <path d="M 71.7075 74.80786 
L 146.1075 74.80786 
" clip-path="url(#pe2331c60af)" style="fill: none; stroke: #000000; stroke-width: 1.875"/>
   </g>
   <g id="line2d_8">
    <path d="M 164.7075 75.095379 
L 239.1075 75.095379 
" clip-path="url(#pe2331c60af)" style="fill: none; stroke: #000000; stroke-width: 1.875"/>
   </g>
   <g id="line2d_9">
    <path d="M 257.7075 144.514069 
L 332.1075 144.514069 
" clip-path="url(#pe2331c60af)" style="fill: none; stroke: #000000; stroke-width: 1.875"/>
   </g>
   <g id="line2d_10">
    <path d="M 350.7075 101.619478 
L 425.1075 101.619478 
" clip-path="url(#pe2331c60af)" style="fill: none; stroke: #000000; stroke-width: 1.875"/>
   </g>
   <g id="line2d_11">
    <path d="M 443.7075 95.375202 
L 518.1075 95.375202 
" clip-path="url(#pe2331c60af)" style="fill: none; stroke: #000000; stroke-width: 1.875"/>
   </g>
   <g id="line2d_12">
    <path d="M 536.7075 90.908258 
L 611.1075 90.908258 
" clip-path="url(#pe2331c60af)" style="fill: none; stroke: #000000; stroke-width: 1.875"/>
   </g>
   <g id="line2d_13">
    <path d="M 629.7075 88.586936 
L 704.1075 88.586936 
" clip-path="url(#pe2331c60af)" style="fill: none; stroke: #000000; stroke-width: 1.875"/>
   </g>
   <g id="line2d_14">
    <path d="M 722.7075 76.569461 
L 797.1075 76.569461 
" clip-path="url(#pe2331c60af)" style="fill: none; stroke: #000000; stroke-width: 1.875"/>
   </g>
   <g id="line2d_15">
    <path d="M 815.7075 74.494206 
L 890.1075 74.494206 
" clip-path="url(#pe2331c60af)" style="fill: none; stroke: #000000; stroke-width: 1.875"/>
   </g>
   <g id="patch_12">
    <path d="M 62.4075 175.259463 
L 62.4075 8.939463 
" style="fill: none; stroke: #cccccc; stroke-width: 1.25; stroke-linejoin: miter; stroke-linecap: square"/>
   </g>
   <g id="patch_13">
    <path d="M 899.4075 175.259463 
L 899.4075 8.939463 
" style="fill: none; stroke: #cccccc; stroke-width: 1.25; stroke-linejoin: miter; stroke-linecap: square"/>
   </g>
   <g id="patch_14">
    <path d="M 62.4075 175.259463 
L 899.4075 175.259463 
" style="fill: none; stroke: #cccccc; stroke-width: 1.25; stroke-linejoin: miter; stroke-linecap: square"/>
   </g>
   <g id="patch_15">
    <path d="M 62.4075 8.939463 
L 899.4075 8.939463 
" style="fill: none; stroke: #cccccc; stroke-width: 1.25; stroke-linejoin: miter; stroke-linecap: square"/>
   </g>
  </g>
 </g>
 <defs>
  <clipPath id="pe2331c60af">
   <rect x="62.4075" y="8.939463" width="837" height="166.32"/>
  </clipPath>
 </defs>
</svg>
